HIERARCHY
ROOT Hips
{
  OFFSET -35.2597 29.1586 114.425
  CHANNELS 6 Xposition Yposition Zposition Zrotation Xrotation Yrotation
  JOINT LeftUpLeg
  {
    OFFSET 8.64259 1.95398 -2.38835
    CHANNELS 3 Zrotation Xrotation Yrotation
    JOINT LeftLeg
    {
      OFFSET 43.7702 0 0
      CHANNELS 3 Zrotation Xrotation Yrotation
      JOINT LeftFoot
      {
        OFFSET 40.6238 0 0
        CHANNELS 3 Zrotation Xrotation Yrotation
        JOINT LeftToeBase
        {
          OFFSET 12.7242 0 0
          CHANNELS 3 Zrotation Xrotation Yrotation
          End Site
          {
            OFFSET 0 0 0
          }
        }
      }
    }
  }
  JOINT RightUpLeg
  {
    OFFSET -8.2249 1.95398 -2.59336
    CHANNELS 3 Zrotation Xrotation Yrotation
    JOINT RightLeg
    {
      OFFSET 43.5653 0 0
      CHANNELS 3 Zrotation Xrotation Yrotation
      JOINT RightFoot
      {
        OFFSET 40.6238 0 0
        CHANNELS 3 Zrotation Xrotation Yrotation
        JOINT RightToeBase
        {
          OFFSET 12.7242 0 0
          CHANNELS 3 Zrotation Xrotation Yrotation
          End Site
          {
            OFFSET 0 0 0
          }
        }
      }
    }
  }
  JOINT Spine
  {
    OFFSET 0.165834 0.87714 6.61349
    CHANNELS 3 Zrotation Xrotation Yrotation
    JOINT Spine1
    {
      OFFSET 7.38963 1.71661e-005 0
      CHANNELS 3 Zrotation Xrotation Yrotation
      JOINT Spine2
      {
        OFFSET 11.9445 1.14441e-005 0
        CHANNELS 3 Zrotation Xrotation Yrotation
        JOINT Spine3
        {
          OFFSET 14.7254 4.19617e-005 0
          CHANNELS 3 Zrotation Xrotation Yrotation
          JOINT Spine4
          {
            OFFSET 10.9679 0 0
            CHANNELS 3 Zrotation Xrotation Yrotation
            JOINT RightShoulder
            {
              OFFSET 2.46616 -1.6653 3.69651
              CHANNELS 3 Zrotation Xrotation Yrotation
              JOINT RightArm
              {
                OFFSET 13.0012 0 0
                CHANNELS 3 Zrotation Xrotation Yrotation
                JOINT RightForeArm
                {
                  OFFSET 28.7848 1.62311e-005 0
                  CHANNELS 3 Zrotation Xrotation Yrotation
                  JOINT RightHand
                  {
                    OFFSET 26.5688 1.62095e-005 0
                    CHANNELS 3 Zrotation Xrotation Yrotation
                    End Site
                    {
                      OFFSET 0 0 0
                    }
                  }
                }
              }
            }
            JOINT LeftShoulder
            {
              OFFSET 2.38034 -1.29275 -3.7523
              CHANNELS 3 Zrotation Xrotation Yrotation
              JOINT LeftArm
              {
                OFFSET 16.3182 6.07031e-005 0
                CHANNELS 3 Zrotation Xrotation Yrotation
                JOINT LeftForeArm
                {
                  OFFSET 27.0901 0 0
                  CHANNELS 3 Zrotation Xrotation Yrotation
                  JOINT LeftHand
                  {
                    OFFSET 24.5451 1.51738e-005 0
                    CHANNELS 3 Zrotation Xrotation Yrotation
                    End Site
                    {
                      OFFSET 0 0 0
                    }
                  }
                }
              }
            }
            JOINT Neck
            {
              OFFSET 5.0226 -0.0266342 0
              CHANNELS 3 Zrotation Xrotation Yrotation
              JOINT Head
              {
                OFFSET 6.69364 2.86102e-005 0
                CHANNELS 3 Zrotation Xrotation Yrotation
                End Site
                {
                  OFFSET 0 0 0
                }
              }
            }
          }
        }
      }
    }
  }
}
MOTION
Frames:	17
Frame Time:	0.0416667
38.0892 101.769 -276.038 -173.938 -83.7637 -176.962 -174.063 -6.38428 90.4998 -6.91192 5.62059 0.491309 66.3812 4.54658 -5.25484 25.2419 -9.06519 12.9716 172.768 -2.69789 87.3174 -13.76 -7.30485 -0.695793 68.6598 -4.73785 3.16573 26.6714 2.38246 -4.54822 -0.0286628 7.61579 -90.0569 11.6423 -0.083616 -0.10462 -0.0287017 -0.0881424 -0.100855 -22.5638 -0.048311 -0.124916 -2.55118 -0.0483139 -0.124922 89.6548 -33.5527 -106.117 45.5809 6.6976 -4.32855 -6.07267 -51.5947 -5.96319 -32.3836 2.22987 -13.0122 -86.5206 -60.3408 85.4157 -24.9985 -12.7389 -16.2234 3.54676 39.7597 -4.62017 -1.25329 -0.173219 -12.8216 0.452752 -1.0615 -7.09818 3.34073 0.590189 15.8468 
37.5974 101.825 -275.905 -153.669 -83.5742 -155.731 -173.935 -5.51482 91.3387 -8.35588 2.02937 1.03099 68.4417 5.53245 -6.09509 21.9783 -10.0159 10.8826 173.214 -1.92439 88.459 -14.7857 -9.0634 -0.479086 67.0129 -4.03969 0.342522 27.7208 0.047552 1.29084 0.148689 7.52277 -90.0304 11.8287 0.281457 -0.090227 0.157742 0.277213 -0.102534 -22.3777 0.295558 -0.00147038 -2.36501 0.295563 -0.00146794 88.1077 -35.3307 -108.336 45.2882 6.91814 -3.96075 -5.77905 -48.3186 -5.74484 -29.1734 1.82284 -12.5917 -86.2163 -58.6958 85.6165 -23.4639 -13.6289 -13.7207 3.4701 38.3566 -4.54206 -1.48955 -0.162025 -14.7266 3.16563 -0.289306 1.53883 -5.24797 -0.596572 -0.413333 
36.357 101.658 -275.413 -148.377 -83.03 -150.809 -173.705 -6.21245 92.4546 -8.03224 1.31481 1.13946 68.2978 6.80336 -5.57301 22.956 -9.31514 10.8093 173.257 -0.927505 88.525 -17.5709 -8.99622 -0.507871 70.1048 -5.42504 0.0521939 23.8638 1.04566 3.09445 0.282106 7.57796 -89.9784 11.7181 0.57131 -0.0168159 0.0472342 0.570021 -0.0419487 -22.4889 0.549946 0.155673 -2.47625 0.549943 0.155662 87.9717 -35.6199 -108.473 44.3714 7.41091 -3.48403 -5.48738 -44.6028 -5.54728 -19.8736 2.85902 -21.7713 -86.3777 -58.7698 85.4049 -21.6268 -14.513 -12.854 3.43938 37.6994 -4.51229 -2.24544 -0.0998283 -16.5448 2.38396 -0.2731 1.47276 -4.52968 -0.513351 0.300867 
34.5431 100.631 -275.55 -153.394 -83.6066 -155.239 -173.686 1.09208 91.1093 -19.2193 1.70756 1.29276 70.5138 8.81656 -4.63968 28.0875 -7.7741 14.1696 172.981 0.818527 90.2276 -21.9918 -9.24821 0.875308 72.2366 -6.37505 -0.833341 24.6936 1.41863 0.972519 0.325992 7.67816 -90.0495 11.5177 0.625482 -0.162034 -0.153122 0.617753 -0.189413 -22.6895 0.645257 0.0334492 -2.67681 0.645264 0.0334458 88.1673 -34.4624 -108.555 45.1439 7.17952 -3.18424 -5.54349 -45.3809 -5.59618 -20.591 2.55008 -19.7459 -86.0986 -58.3278 85.7309 -20.9985 -14.7864 -13.2984 3.38454 36.0857 -4.47035 -1.38427 -0.180504 -15.0222 3.27471 -0.115728 2.66877 -4.27512 -0.55414 -0.283923 
33.0458 100.043 -275.8 -175.155 -83.5197 -175.857 -175.452 10.2338 93.8349 -37.4263 3.79047 2.92385 69.7811 7.59839 -2.37742 24.7219 -9.8667 13.6962 172.835 0.676509 91.5978 -23.3607 -7.11103 2.18316 72.9339 -6.34443 -0.411049 24.8946 0.7692 2.67137 0.349958 7.912 -90.2941 11.0512 0.560326 -0.639112 -0.619803 0.53165 -0.663159 -23.1552 0.726488 -0.441163 -3.1426 0.726488 -0.441174 88.231 -33.4711 -108.819 45.1952 7.28649 -2.69559 -5.38943 -43.2947 -5.50364 -21.9728 2.41582 -17.9966 -86.165 -60.3046 85.8892 -19.0721 -15.6643 -14.1345 3.34729 35.8968 -4.41748 0.248971 -0.400628 -17.8611 3.38866 -0.535907 4.94282 -2.95461 -1.33142 -1.81239 
31.9207 100.307 -274.852 168.386 -83.0395 167.175 -177.336 16.2572 91.7827 -45.1401 7.67235 3.33498 67.633 6.35794 1.46857 21.3347 -10.1704 10.428 172.94 -1.34238 91.8242 -22.0408 -3.06917 2.14712 75.1386 -6.77886 1.08761 21.6871 2.4083 1.77308 0.52282 8.05181 -90.3154 10.7748 0.895564 -0.710159 -0.896035 0.863434 -0.748893 -23.433 1.06759 -0.408159 -3.42036 1.06759 -0.408161 87.8307 -33.748 -109.459 43.9472 8.08871 -1.45182 -5.3396 -42.5858 -5.47359 -23.2803 2.43433 -17.3147 -86.0396 -61.0491 86.1475 -18.6195 -15.8763 -13.9571 3.40903 35.9487 -4.52881 1.53934 -0.568572 -18.301 2.50787 -1.67583 4.46025 -1.86084 -2.35304 -2.50332 
31.4058 100.366 -273.125 168.847 -83.3316 165.511 -177.557 17.7206 87.8608 -38.312 9.99708 1.53758 67.5387 5.54891 -2.59886 20.6848 -10.709 10.5909 172.208 -2.35451 89.9651 -20.8595 -4.23668 1.78672 74.5194 -6.43529 1.04228 26.2253 -0.175812 4.01671 0.864428 8.08175 -90.0424 10.7123 1.70196 -0.240248 -0.957598 1.68974 -0.314947 -23.5016 1.69546 0.282525 -3.48891 1.69545 0.282513 87.8373 -34.4972 -109.149 44.0227 8.00735 -1.65595 -5.40898 -43.5674 -5.51521 -22.3058 2.04724 -15.8977 -86.2639 -59.921 85.7075 -18.3301 -16.0017 -11.5168 3.26746 34.289 -4.33199 1.16073 -0.497472 -17.6202 2.2258 -2.83385 2.85307 -2.38825 -3.21435 -2.63149 
31.2228 100.227 -270.774 166.395 -83.7678 161.871 -178.169 16.5022 84.4596 -22.3141 10.6547 -0.0975423 65.456 4.99794 -0.660447 17.7114 -9.93469 6.4476 172.233 -4.04923 89.1941 -19.6014 -3.47048 1.14076 74.9162 -6.74637 1.11397 28.3914 -1.2104 4.64189 0.925602 8.13598 -89.981 10.604 1.85228 -0.129364 -1.06566 1.84479 -0.21079 -23.611 1.80549 0.433492 -3.5984 1.80549 0.433498 87.7621 -33.6632 -109.617 44.3576 7.32748 -3.85478 -5.55125 -45.4953 -5.60497 -22.1218 2.31124 -17.3748 -86.3031 -61.4164 85.8426 -16.4014 -16.7697 -7.85094 3.22975 33.3031 -4.3002 -0.268084 -0.315819 -16.26 2.24963 -2.78615 4.67638 -1.11455 -3.4822 -3.00237 
31.2053 99.8669 -267.389 166.242 -83.3567 161.945 -178.847 14.206 82.7812 -8.23912 7.62967 -1.41199 63.226 4.02827 -0.79325 15.6801 -10.9312 5.98765 172.51 -7.42269 89.6227 -18.1326 -2.67213 0.707732 75.3365 -7.30792 1.06288 30.2692 -1.78763 4.19523 0.930171 8.1996 -90.0546 10.4779 1.82783 -0.270625 -1.19183 1.81415 -0.350837 -23.7372 1.82463 0.291414 -3.72454 1.82464 0.291423 87.5956 -33.8612 -109.847 43.754 7.04755 -5.96849 -5.55183 -45.4997 -5.60534 -23.0593 2.98191 -20.1763 -86.437 -62.4222 85.7898 -16.1849 -16.7723 -3.96634 3.20566 32.8046 -4.27269 0.793612 -0.309736 -12.2891 1.65043 -2.51933 5.10328 -0.349314 -3.27913 -2.49311 
31.1485 98.9618 -263.042 -176.198 -84.5238 179.603 -178.352 16.5747 81.8355 -7.73026 4.52586 -2.8249 63.3397 3.46723 -0.912432 15.5132 -10.713 5.52405 172.216 -8.71467 89.0649 -19.5057 -3.19915 0.332507 79.6634 -9.61043 2.47277 28.51 -0.927765 3.53 1.09639 8.09177 -90.0645 10.6946 2.15379 -0.324917 -0.974611 2.13739 -0.419441 -23.5239 2.15181 0.337717 -3.51126 2.15181 0.337707 87.4271 -33.9076 -110.14 43.513 6.77945 -7.45423 -5.56548 -45.6808 -5.61406 -22.9669 2.97676 -20.2106 -86.3271 -63.6853 86.0874 -15.1632 -17.0473 -0.841336 3.2388 33.5327 -4.30797 -2.449 -0.0866449 -13.1677 1.45166 -2.0765 5.46073 -0.541675 -2.88896 -3.18058 
31.01 98.1646 -257.041 -138.712 -83.2729 -142.899 -177.855 17.41 81.8601 -12.4402 1.88238 -2.6138 59.2509 0.193295 -1.59278 12.7413 -11.9312 4.71674 172.07 -13.3769 88.2853 -16.8302 -5.73341 -0.913741 80.1878 -11.1841 1.73573 30.1975 -1.25666 2.27509 1.39459 7.99013 -89.9693 10.9002 2.79073 -0.203997 -0.767838 2.77904 -0.326724 -23.3262 2.72293 0.644802 -3.31353 2.72294 0.644805 87.5386 -33.5406 -110.083 44.5536 6.24782 -7.69783 -5.62905 -46.4953 -5.65549 -22.5001 2.7905 -19.5878 -86.0221 -64.3789 86.5631 -14.5795 -17.1347 1.88015 3.12814 31.0163 -4.19184 -1.59856 -0.154021 -13.8051 2.10431 -1.68609 5.17616 -1.4968 -2.46125 -3.74804 
30.961 98.2709 -249.75 -122.472 -81.0554 -128.705 -177.056 18.1136 79.567 -21.8995 0.36939 -2.89989 62.3637 1.29307 -0.517896 10.5446 -13.4943 4.88942 169.419 -15.5386 83.8247 -18.5796 -10.5916 -1.91348 75.5481 -9.45713 -0.152168 37.8559 -4.52727 4.04846 1.43291 7.87563 -89.5813 11.1191 3.04658 0.537521 -0.548298 3.06729 0.402781 -23.107 2.74409 1.42892 -3.09437 2.74409 1.42891 86.8603 -33.9569 -111.166 45.8994 5.93344 -6.63039 -5.61711 -46.3444 -5.6477 -23.7831 2.5656 -17.7217 -85.9187 -65.0988 86.7774 -12.1092 -17.8722 2.33228 3.12346 30.8673 -4.1881 -1.73321 -0.135435 -12.4294 2.19413 -1.06888 5.13713 -1.17812 -1.86062 -4.3214 
30.7447 98.8567 -242.392 -122.333 -79.2873 -128.898 -175.969 13.136 79.1941 -24.8099 -0.539646 -3.77454 68.2419 5.04034 -0.893246 11.9007 -13.1057 5.56511 167.736 -10.5558 80.4929 -33.2672 -17.9769 -2.41692 64.9425 -2.97706 -0.691027 42.8775 -6.78211 6.88712 1.38627 7.80209 -89.4533 11.2615 3.0133 0.790087 -0.406152 3.04515 0.656591 -22.962 2.63648 1.65969 -2.9494 2.63648 1.65969 87.6061 -33.3578 -110.031 47.0654 6.02599 -4.50079 -5.72416 -47.6781 -5.71873 -24.9636 2.7362 -17.852 -85.6662 -63.6784 86.9451 -12.6094 -17.896 -0.911993 3.11684 30.6884 -4.18244 -2.70404 -0.0721039 -10.7231 1.73002 -0.623551 4.0012 -3.08699 -1.17017 -3.56168 
30.522 99.1635 -236.726 -126.313 -77.4686 -131.769 -175.656 7.88802 79.9037 -25.9263 -0.945538 -3.71069 72.3367 7.32845 -0.749031 13.5584 -12.3802 6.07293 170.312 0.341416 80.6273 -55.3843 -22.0787 -4.07986 55.4209 3.16899 1.21262 24.9831 -0.352593 5.90414 1.09066 7.97247 -89.6 10.9239 2.35652 0.573444 -0.745038 2.37948 0.469105 -23.2932 2.07519 1.25542 -3.28056 2.07519 1.25542 88.1225 -32.6225 -109.361 45.4494 6.56317 -5.04107 -5.5661 -45.6843 -5.61202 -22.8721 3.01781 -20.4735 -85.9079 -63.7255 86.6354 -13.6836 -17.8538 -7.83723 3.15203 31.5333 -4.21871 -0.727176 -0.206629 -12.5495 1.95781 0.655098 4.93225 -2.00823 -0.0918334 -3.99485 
29.9496 99.5524 -231.995 -131.552 -76.5557 -135.529 -175.759 2.43477 81.0208 -24.7314 -0.867411 -2.89516 75.0085 8.8677 -1.25806 14.9893 -12.1716 7.09711 174.731 8.83333 84.0384 -62.8655 -19.3352 -5.074 61.5777 -1.03322 -1.32583 24.5946 0.493252 3.84831 0.788335 8.18696 -89.6241 10.4952 1.74286 0.591803 -1.17468 1.76722 0.514493 -23.716 1.48442 1.08833 -3.70333 1.48442 1.08832 87.4996 -34.9836 -109.58 43.1657 7.26882 -6.10259 -5.17775 -40.1746 -5.38094 -23.2495 3.13774 -20.8275 -86.4072 -60.7699 85.6221 -16.654 -16.8544 -17.6815 3.2102 32.6602 -4.29231 0.531699 -0.277959 -11.692 0.692011 1.19404 1.71705 -0.791085 0.916944 -2.55104 
29.2696 100.199 -227.437 -140.1 -78.044 -140.9 -175.567 -1.78407 83.9997 -23.0425 1.02418 -1.11504 76.882 9.65291 -2.53947 17.7178 -12.2788 9.89349 177.974 12.8186 89.3305 -49.3668 -10.2493 -4.24589 68.7491 -5.86973 -0.662896 23.389 1.33724 2.79707 0.343863 8.21489 -89.9457 10.4459 0.709926 0.0456861 -1.22487 0.711249 0.0143942 -23.7614 0.663375 0.256949 -3.74875 0.663373 0.256945 87.454 -35.2399 -109.559 42.0123 7.97423 -5.20098 -5.40221 -43.4729 -5.51082 -25.636 3.45275 -20.6947 -86.5695 -59.1649 85.1958 -19.2994 -15.4605 -26.9558 3.21337 32.8766 -4.28681 -1.82912 -0.113409 -13.1775 -0.877905 1.69568 -0.144632 -1.20173 1.69574 -1.48646 
28.3504 100.196 -222.275 -145.181 -79.7649 -144.07 -175.318 -5.45919 85.9544 -20.8427 2.25435 0.224862 79.8642 12.062 -1.94787 14.9007 -11.9454 6.70171 179.268 14.6306 92.506 -26.9497 -7.4438 -2.5292 64.5081 -3.55737 -0.962916 22.8844 1.31914 3.42398 0.0494178 8.24596 -90.1464 10.3819 0.031462 -0.293579 -1.2891 0.0185099 -0.294695 -23.824 0.118236 -0.270551 -3.81137 0.118232 -0.270569 86.9475 -36.3066 -110.055 40.3497 9.0763 -3.26251 -5.34699 -42.6916 -5.47794 -24.0508 3.9232 -23.9753 -86.6007 -56.7518 84.8251 -24.2076 -11.9028 -34.4631 3.20496 32.7786 -4.2725 2.62442 -0.603602 -16.0885 0.148233 1.74162 -2.72 -1.65794 2.10292 -0.134444 
